<svg width="26" height="22" viewBox="0 0 26 22" fill="none" xmlns="http://www.w3.org/2000/svg">
                        <path d="M18.6557 19.8526C18.3711 19.8526 18.0982 19.7398 17.897 19.5389C17.6957 19.3379 17.5827 19.0654 17.5827 18.7813H15.4365C15.4365 19.6337 15.7757 20.4512 16.3794 21.0539C16.9831 21.6567 17.8019 21.9953 18.6557 21.9953C19.5095 21.9953 20.3283 21.6567 20.9321 21.0539C21.5358 20.4512 21.8749 19.6337 21.8749 18.7813H19.7288C19.7288 19.0654 19.6157 19.3379 19.4145 19.5389C19.2133 19.7398 18.9403 19.8526 18.6557 19.8526Z" fill="white"></path>
                        <path d="M11.1048 19.8526C10.8202 19.8526 10.5472 19.7398 10.346 19.5389C10.1447 19.3379 10.0317 19.0654 10.0317 18.7813H7.87549C7.87549 19.204 7.95888 19.6225 8.12089 20.013C8.28291 20.4036 8.52038 20.7584 8.81975 21.0573C9.11912 21.3561 9.47452 21.5932 9.86566 21.755C10.2568 21.9167 10.676 22 11.0994 22C11.5228 22 11.942 21.9167 12.3331 21.755C12.7243 21.5932 13.0797 21.3561 13.379 21.0573C13.6784 20.7584 13.9159 20.4036 14.0779 20.013C14.2399 19.6225 14.3233 19.204 14.3233 18.7813H12.1772C12.1772 19.0653 12.0642 19.3377 11.8631 19.5386C11.662 19.7395 11.3892 19.8525 11.1048 19.8526V19.8526Z" fill="white"></path>
                        <path d="M25.1035 2.12755C25.045 2.11761 24.9858 2.11268 24.9264 2.11282H7.75732C7.47272 2.11282 7.19978 2.22569 6.99854 2.4266C6.7973 2.62752 6.68425 2.90001 6.68425 3.18415C6.68425 3.46828 6.7973 3.74078 6.99854 3.94169C7.19978 4.1426 7.47272 4.25548 7.75732 4.25548H23.6595L23.3758 5.95487L21.8715 14.9688H7.87334L4.22491 5.95487L2.04859 0.62501C1.9335 0.374275 1.72598 0.177515 1.46924 0.0756873C1.2125 -0.0261399 0.926318 -0.0251882 0.670263 0.0783445C0.414208 0.181877 0.208012 0.380014 0.0945983 0.631508C-0.0188156 0.883003 -0.0307089 1.16848 0.0613942 1.42851L3.53613 9.94089L5.90761 16.2162C6.08266 16.7445 6.44415 17.1114 6.96593 17.1114H22.7803C23.0344 17.1115 23.2803 17.0216 23.4742 16.8577C23.6681 16.6938 23.7975 16.4664 23.8393 16.2162L25.5522 5.95487L25.9854 3.36025C26.0322 3.08003 25.9655 2.79274 25.8001 2.56158C25.6347 2.33041 25.3842 2.17429 25.1035 2.12755V2.12755Z" fill="white"></path>
                    </svg>