<svg width="28" height="26" viewBox="0 0 28 26" fill="none" xmlns="http://www.w3.org/2000/svg">
<path d="M5.95714 17.1751V17.1751C4.56278 17.4417 3.21515 16.5278 2.94712 15.1337L1.49398 7.57539C1.20201 6.0568 2.19523 4.59054 3.7141 4.30006C5.84956 3.89167 8.8161 3.32434 11.0642 2.89441C13.3382 2.45952 16.3579 1.93862 18.5073 1.57549C20.0034 1.32272 21.4228 2.31414 21.7092 3.80416C21.8101 4.32882 21.9181 4.89047 22.0257 5.44992" stroke="#2B38D1" stroke-width="1.5" stroke-linecap="round"></path>
<path d="M6.10693 9.6801V18.9102C6.10693 20.3262 7.25788 21.4741 8.67764 21.4741H8.992C9.52827 21.4741 9.96299 21.9088 9.96299 22.4451C9.96299 23.5022 10.0524 25.0661 11.112 25.0365C11.8308 25.0164 12.0877 24.14 12.4786 23.5381L12.991 22.749C13.5074 21.9539 14.3912 21.4741 15.3393 21.4741H23.0736C25.0613 21.4741 26.6726 19.8673 26.6726 17.8849V9.76549C26.6726 7.82707 25.4022 6.13737 23.4592 6.09062C21.3657 6.04023 18.4467 6.09063 16.3898 6.09063H9.70539C7.71772 6.09063 6.10693 7.69769 6.10693 9.6801Z" stroke="#2B38D1" stroke-width="1.5" stroke-linecap="round"></path>
<ellipse cx="11.2482" cy="13.7825" rx="1.28535" ry="1.28195" fill="#2B38D1"></ellipse>
<ellipse cx="16.3898" cy="13.7825" rx="1.28535" ry="1.28195" fill="#2B38D1"></ellipse>
<ellipse cx="21.531" cy="13.7825" rx="1.28535" ry="1.28195" fill="#2B38D1"></ellipse>
</svg>