<svg width="27" height="23" viewBox="0 0 27 23" fill="none" xmlns="http://www.w3.org/2000/svg">
                        <path d="M19.3797 20.7212C19.0844 20.7212 18.8011 20.6036 18.5923 20.3944C18.3835 20.1852 18.2662 19.9014 18.2662 19.6055H16.0391C16.0391 20.4932 16.391 21.3445 17.0175 21.9722C17.644 22.5999 18.4937 22.9526 19.3797 22.9526C20.2657 22.9526 21.1154 22.5999 21.7419 21.9722C22.3684 21.3445 22.7203 20.4932 22.7203 19.6055H20.4932C20.4932 19.9014 20.3759 20.1852 20.1671 20.3944C19.9583 20.6036 19.675 20.7212 19.3797 20.7212Z" fill="#212529"></path>
                        <path d="M11.5425 20.7212C11.2472 20.7212 10.9639 20.6036 10.7551 20.3944C10.5463 20.1852 10.4289 19.9014 10.4289 19.6055H8.19141C8.19141 20.0457 8.27794 20.4816 8.44607 20.8882C8.6142 21.2949 8.86062 21.6644 9.17128 21.9757C9.48194 22.287 9.85075 22.5339 10.2566 22.7023C10.6625 22.8708 11.0976 22.9575 11.5369 22.9575C11.9763 22.9575 12.4113 22.8708 12.8172 22.7023C13.2231 22.5339 13.5919 22.287 13.9025 21.9757C14.2132 21.6644 14.4596 21.2949 14.6278 20.8882C14.7959 20.4816 14.8824 20.0457 14.8824 19.6055H12.6553C12.6553 19.9013 12.5381 20.185 12.3294 20.3942C12.1207 20.6034 11.8377 20.721 11.5425 20.7212Z" fill="#212529"></path>
                        <path d="M26.0699 2.26207C26.0092 2.25171 25.9477 2.24658 25.8862 2.24673H8.06945C7.77412 2.24673 7.49089 2.36427 7.28205 2.5735C7.07322 2.78274 6.95591 3.06652 6.95591 3.36242C6.95591 3.65832 7.07322 3.9421 7.28205 4.15133C7.49089 4.36056 7.77412 4.47811 8.06945 4.47811H24.5715L24.2771 6.24788L22.7161 15.635H8.18985L4.4038 6.24788L2.14539 0.697308C2.02596 0.436191 1.81062 0.231283 1.54419 0.125239C1.27777 0.0191949 0.980789 0.020186 0.715076 0.128006C0.449363 0.235826 0.23539 0.442167 0.117698 0.704076C5.8841e-06 0.965985 -0.012336 1.26328 0.0832412 1.53408L3.68904 10.399L6.14998 16.9341C6.33162 17.4843 6.70675 17.8664 7.24821 17.8664H23.6591C23.9228 17.8665 24.178 17.7729 24.3792 17.6022C24.5804 17.4315 24.7147 17.1947 24.758 16.9341L26.5355 6.24788L26.9851 3.54581C27.0336 3.25398 26.9644 2.95481 26.7928 2.71407C26.6212 2.47333 26.3612 2.31075 26.0699 2.26207Z" fill="#212529"></path>
                      </svg>