<svg width="23" height="23" viewBox="0 0 23 23" fill="none" xmlns="http://www.w3.org/2000/svg">
              <path d="M3.08737 14.2867L1.48898 12.6883C0.837006 12.0363 0.837006 10.9637 1.48898 10.3117L3.08737 8.71331C3.36078 8.4399 3.58161 7.90359 3.58161 7.52502V5.26411C3.58161 4.33872 4.33875 3.58161 5.26414 3.58161H7.52502C7.90359 3.58161 8.4399 3.36081 8.71331 3.0874L10.3117 1.48898C10.9637 0.837006 12.0363 0.837006 12.6883 1.48898L14.2867 3.0874C14.5601 3.36081 15.0964 3.58161 15.4749 3.58161H17.7359C18.6612 3.58161 19.4184 4.33872 19.4184 5.26411V7.52502C19.4184 7.90359 19.6392 8.4399 19.9126 8.71331L21.511 10.3117C22.163 10.9637 22.163 12.0363 21.511 12.6883L19.9126 14.2867C19.6392 14.5601 19.4184 15.0964 19.4184 15.475V17.7358C19.4184 18.6612 18.6612 19.4184 17.7359 19.4184H15.4749C15.0964 19.4184 14.5601 19.6392 14.2867 19.9126L12.6883 21.511C12.0363 22.163 10.9637 22.163 10.3117 21.511L8.71331 19.9126C8.4399 19.6392 7.90359 19.4184 7.52502 19.4184H5.26414C4.33875 19.4184 3.58161 18.6612 3.58161 17.7358V15.475C3.58161 15.0859 3.36078 14.5496 3.08737 14.2867Z" fill="#DD3842"></path>
              <path d="M3.08737 14.2867L1.48898 12.6883C0.837006 12.0363 0.837006 10.9637 1.48898 10.3117L3.08737 8.71331C3.36078 8.4399 3.58161 7.90359 3.58161 7.52502V5.26411C3.58161 4.33872 4.33875 3.58161 5.26414 3.58161H7.52502C7.90359 3.58161 8.4399 3.36081 8.71331 3.0874L10.3117 1.48898C10.9637 0.837006 12.0363 0.837006 12.6883 1.48898L14.2867 3.0874C14.5601 3.36081 15.0964 3.58161 15.4749 3.58161H17.7359C18.6612 3.58161 19.4184 4.33872 19.4184 5.26411V7.52502C19.4184 7.90359 19.6392 8.4399 19.9126 8.71331L21.511 10.3117C22.163 10.9637 22.163 12.0363 21.511 12.6883L19.9126 14.2867C19.6392 14.5601 19.4184 15.0964 19.4184 15.475V17.7358C19.4184 18.6612 18.6612 19.4184 17.7359 19.4184H15.4749C15.0964 19.4184 14.5601 19.6392 14.2867 19.9126L12.6883 21.511C12.0363 22.163 10.9637 22.163 10.3117 21.511L8.71331 19.9126C8.4399 19.6392 7.90359 19.4184 7.52502 19.4184H5.26414C4.33875 19.4184 3.58161 18.6612 3.58161 17.7358V15.475C3.58161 15.0859 3.36078 14.5496 3.08737 14.2867Z" fill="#DD3842" stroke="#DD3842" stroke-width="1.5" stroke-linecap="round" stroke-linejoin="round"></path>
              <path d="M8 15.0909L15.0909 8" stroke="white" stroke-width="1.5" stroke-linecap="round" stroke-linejoin="round"></path>
              <path d="M14.4937 14.5H14.5043" stroke="white" stroke-width="2" stroke-linecap="round" stroke-linejoin="round"></path>
              <path d="M8.58442 8.59091H8.59503" stroke="white" stroke-width="2" stroke-linecap="round" stroke-linejoin="round"></path>
            </svg>