<svg width="23" height="23" viewBox="0 0 23 23" fill="none" xmlns="http://www.w3.org/2000/svg">
                            <path d="M22.8548 21.3334C21.6915 19.3656 20.0317 17.7341 18.0398 16.6006C16.0478 15.467 13.7928 14.8708 11.4979 14.8708C9.20304 14.8708 6.94798 15.467 4.95601 16.6006C2.96405 17.7341 1.30427 19.3656 0.141025 21.3334C-0.00138538 21.5886 -0.0376415 21.8892 0.0400248 22.1707C0.0766559 22.314 0.143667 22.448 0.236568 22.5635C0.329469 22.679 0.446115 22.7735 0.578691 22.8405C0.74972 22.9369 0.943214 22.987 1.1398 22.9856C1.33475 22.9938 1.52817 22.9481 1.69855 22.8535C1.86893 22.7589 2.0096 22.6191 2.10491 22.4498C3.06783 20.8199 4.44211 19.4685 6.09163 18.5296C7.74115 17.5906 9.60864 17.0967 11.5091 17.0967C13.4096 17.0967 15.2771 17.5906 16.9266 18.5296C18.5761 19.4685 19.9504 20.8199 20.9133 22.4498C21.0632 22.7032 21.3076 22.8876 21.5934 22.9628C21.8792 23.0381 22.1832 22.9981 22.4396 22.8516C22.5672 22.7839 22.6791 22.6903 22.768 22.5769C22.8569 22.4634 22.9209 22.3326 22.9558 22.193C22.9973 22.0502 23.0098 21.9007 22.9924 21.7531C22.9751 21.6055 22.9283 21.4628 22.8548 21.3334Z" fill="#212529"></path>
                            <path d="M11.4996 13.8C13.3079 13.8003 15.044 13.0842 16.3345 11.8057C17.6249 10.5272 18.3665 8.78854 18.3996 6.96384C18.3996 5.11691 17.6726 3.34563 16.3786 2.03966C15.0846 0.733688 13.3296 0 11.4996 0C9.66962 0 7.91457 0.733688 6.62057 2.03966C5.32657 3.34563 4.59961 5.11691 4.59961 6.96384C4.63276 8.78854 5.37433 10.5272 6.66476 11.8057C7.95518 13.0842 9.69132 13.8003 11.4996 13.8ZM6.89961 6.96384C6.89961 5.73255 7.38425 4.5517 8.24692 3.68105C9.10959 2.8104 10.2796 2.32128 11.4996 2.32128C12.7196 2.32128 13.8896 2.8104 14.7523 3.68105C15.615 4.5517 16.0996 5.73255 16.0996 6.96384C16.0996 8.19512 15.615 9.37597 14.7523 10.2466C13.8896 11.1173 12.7196 11.6064 11.4996 11.6064C10.2796 11.6064 9.10959 11.1173 8.24692 10.2466C7.38425 9.37597 6.89961 8.19512 6.89961 6.96384Z" fill="#212529"></path>
                        </svg>